<?xml version="1.0" encoding="UTF-8"?>
<!DOCTYPE svg PUBLIC "-//W3C//DTD SVG 1.1//EN" "http://www.w3.org/Graphics/SVG/1.1/DTD/svg11.dtd">
<!-- Creator: CorelDRAW 2019 (64 Bit) -->
<svg xmlns="http://www.w3.org/2000/svg" xml:space="preserve" width="117.509mm" height="66.16mm" version="1.1" style="shape-rendering:geometricPrecision; text-rendering:geometricPrecision; image-rendering:optimizeQuality; fill-rule:evenodd; clip-rule:evenodd"
viewBox="0 0 11750.9 6616"
 xmlns:xlink="http://www.w3.org/1999/xlink">
 <defs>
  <style type="text/css">
   <![CDATA[
    .fil9 {fill:black;fill-rule:nonzero}
    .fil6 {fill:#153E49;fill-rule:nonzero}
    .fil3 {fill:#4C6468;fill-rule:nonzero}
    .fil1 {fill:#5D7A7F;fill-rule:nonzero}
    .fil0 {fill:#B1DFDD;fill-rule:nonzero}
    .fil7 {fill:#F7D77F;fill-rule:nonzero}
    .fil2 {fill:url(#id0)}
    .fil5 {fill:url(#id1)}
    .fil8 {fill:url(#id2)}
    .fil4 {fill:url(#id3)}
   ]]>
  </style>
  <radialGradient id="id0" gradientUnits="userSpaceOnUse" gradientTransform="matrix(24.3163 5.27788 5.27788 -24.3163 -162177 27060)" cx="6411.03" cy="2405.43" r="165.53" fx="6411.03" fy="2405.43">
   <stop offset="0" style="stop-opacity:1; stop-color:#8EAFA6"/>
   <stop offset="1" style="stop-opacity:1; stop-color:#75A197"/>
  </radialGradient>
  <radialGradient id="id1" gradientUnits="userSpaceOnUse" gradientTransform="matrix(2.67498 0.580607 0.580605 -2.67497 -12114 5123)" cx="6398.53" cy="2404.84" r="1504.72" fx="6398.53" fy="2404.84">
   <stop offset="0" style="stop-opacity:1; stop-color:#AABBB7"/>
   <stop offset="1" style="stop-opacity:1; stop-color:#9EB4AF"/>
  </radialGradient>
  <radialGradient id="id2" gradientUnits="userSpaceOnUse" gradientTransform="matrix(5.26443 1.14265 1.14265 -5.26443 -30061 7741)" cx="6405" cy="2404.03" r="764.58" fx="6405" fy="2404.03">
   <stop offset="0" style="stop-opacity:1; stop-color:#EDF5F3"/>
   <stop offset="1" style="stop-opacity:1; stop-color:#E7F1EF"/>
  </radialGradient>
  <radialGradient id="id3" gradientUnits="userSpaceOnUse" gradientTransform="matrix(2.09713 0.455185 0.455184 -2.09713 -8145 4519)" cx="6427.02" cy="2403.65" r="1919.33" fx="6427.02" fy="2403.65">
   <stop offset="0" style="stop-opacity:1; stop-color:#D0E4DF"/>
   <stop offset="1" style="stop-opacity:1; stop-color:#C1DCD6"/>
  </radialGradient>
 </defs>
 <g id="Camada_x0020_1">
  <metadata id="CorelCorpID_0Corel-Layer"/>
  <g id="_2112545290608">
   <path class="fil0" d="M10441.77 1304.4l0 -529.17 -10442.21 0 0 531.61c35.28,-1.45 32.12,-2.44 44.1,-2.44 155.87,0 286.63,126.37 286.63,282.22 0,155.86 -132.96,282.23 -288.83,282.23 -11.98,0 -6.62,-0.99 -41.9,-2.44l0 357.65c35.28,-1.45 32.12,-2.44 44.1,-2.44 155.87,0 286.63,126.37 286.63,282.23 0,155.85 -132.96,282.22 -288.83,282.22 -11.98,0 -6.62,-0.99 -41.9,-2.44l0 357.65c35.28,-1.45 32.12,-2.43 44.1,-2.43 155.87,0 286.63,126.36 286.63,282.21 0,155.85 -132.96,282.22 -288.83,282.22 -11.98,0 -6.62,-0.99 -41.9,-2.43l0 357.64c35.28,-1.44 32.12,-2.43 44.1,-2.43 155.87,0 286.63,126.36 286.63,282.22 0,155.86 -132.96,282.22 -288.83,282.22 -11.98,0 -6.62,-0.99 -41.9,-2.43l0 357.64c35.28,-1.44 32.12,-2.43 44.1,-2.43 155.87,0 286.63,126.36 286.63,282.22 0,155.86 -132.96,282.22 -288.83,282.22 -11.98,0 -6.62,-0.98 -41.9,-2.43l0 531.6 10442.21 0 0 -529.17c-141.12,0 -282.23,-126.36 -282.23,-282.22 0,-155.86 141.11,-282.22 282.23,-282.22l0 -352.78c-141.12,0 -282.23,-126.36 -282.23,-282.22 0,-155.86 141.11,-282.22 282.23,-282.22l0 -352.78c-141.12,0 -282.23,-126.37 -282.23,-282.22 0,-155.85 141.11,-282.21 282.23,-282.21l0 -352.78c-141.12,0 -282.23,-126.37 -282.23,-282.22 0,-155.86 141.11,-282.23 282.23,-282.23l0 -352.77c-141.12,0 -282.23,-126.37 -282.23,-282.23 0,-155.85 141.11,-282.22 282.23,-282.22z"/>
   <g>
    <polygon class="fil1" points="10375.21,4857.32 10023.17,5224.04 8523.34,3761.33 8875.37,3394.6 "/>
    <polygon class="fil2" points="9281.32,3790.5 8950.26,3467.65 8950.26,3467.64 "/>
    <path class="fil3" d="M9553.46 4055.91l-938.86 -254.07c73.53,-58.54 144.08,-122.69 210.99,-192.4 43.99,-45.82 85.56,-93.17 124.67,-141.79l331.06 322.85 272.14 265.41z"/>
    <path class="fil4" d="M6976.19 3755.14c-118.27,-25.68 -235.14,-59.4 -350.27,-100.77 -332.27,-119.39 -675.71,-302.64 -918.33,-565.77 -67.32,-73.02 -128.99,-151.24 -181.79,-235.11 -269.96,-685.87 -136.28,-1500.2 406.55,-2065.66 479.93,-499.96 1163.15,-684.13 1791.26,-547.8 337.27,73.21 658.69,238.89 924.07,497.69 759.58,740.79 777.43,1968.59 39.78,2737.01 -48.76,50.79 -99.55,98.26 -152.23,142.54 -261.84,112.04 -550.6,171.71 -830.97,191.32 -246.18,17.23 -489.93,-1.77 -728.07,-53.45zm625.26 -3341.94c-187.82,-40.77 -386.09,-39.55 -572.85,-1.44 -244.54,49.88 -502.29,189.72 -618.93,421.36 -13.19,26.18 3.2,61.74 28.71,67.27 8.73,1.9 18.54,0.27 28.59,-6.46 184.72,-123.65 373.97,-226.28 593.78,-268.04 169.23,-32.15 333.94,-14.03 496.92,21.34 78.94,17.14 157.47,38.31 235.94,59.79 1.89,0.51 3.78,0.97 5.65,1.38 110.65,24.03 193.18,-142 82.52,-197.36 -88.59,-44.35 -183.07,-76.73 -280.33,-97.84z"/>
    <path class="fil5" d="M6896.2 4022.53c-337.26,-73.22 -658.69,-238.89 -924.07,-497.69 -200.59,-195.64 -349.45,-425.21 -446.33,-671.35 52.8,83.87 114.47,162.09 181.79,235.11 242.62,263.13 586.06,446.38 918.33,565.77 115.13,41.37 232,75.09 350.27,100.77 238.14,51.68 481.89,70.68 728.07,53.45 280.37,-19.61 569.13,-79.28 830.97,-191.32 -465.91,391.46 -1074.75,527.76 -1639.03,405.26z"/>
    <path class="fil6" d="M11676.86 6380l-151.75 158.08c-100.26,104.44 -265.24,107.48 -368.48,6.79l-1537.52 -1499.45c-16.99,-16.56 -17.39,-43.91 -0.89,-61.09l455.11 -474.09c16.5,-17.18 43.62,-17.68 60.6,-1.12l1537.53 1499.46c103.24,100.68 105.66,266.98 5.4,371.42z"/>
    <polygon class="fil7" points="10410.16,4756 9895.33,5292.3 9831.59,5230.14 10346.42,4693.84 "/>
    <polygon class="fil7" points="10559.89,4908.43 10045.05,5444.74 9981.32,5382.57 10496.14,4846.27 "/>
    <path class="fil6" d="M5932.35 787.83c-737.65,768.41 -719.8,1996.22 39.78,2737.01 759.6,740.78 1977.68,718.3 2715.33,-50.11 737.65,-768.42 719.8,-1996.22 -39.78,-2737.01 -759.59,-740.78 -1977.69,-718.3 -2715.33,50.11zm2893.24 2821.61c-811.61,845.46 -2151.85,870.2 -2987.59,55.13 -835.76,-815.05 -855.4,-2166 -43.79,-3011.47 811.62,-845.45 2151.86,-870.18 2987.62,-55.11 835.75,815.05 855.37,2165.99 43.76,3011.45z"/>
    <path class="fil8" d="M6438.38 900.39c-25.51,-5.53 -41.9,-41.09 -28.71,-67.27 116.64,-231.64 374.39,-371.48 618.93,-421.36 186.76,-38.11 385.03,-39.33 572.85,1.44 97.26,21.11 191.74,53.49 280.33,97.84 110.66,55.36 28.13,221.39 -82.52,197.36 -1.87,-0.41 -3.76,-0.87 -5.65,-1.38 -78.47,-21.48 -157,-42.65 -235.94,-59.79 -162.98,-35.37 -327.69,-53.49 -496.92,-21.34 -219.81,41.76 -409.06,144.39 -593.78,268.04 -10.05,6.73 -19.86,8.36 -28.59,6.46z"/>
    <path class="fil9" d="M7708.91 242.5c-1029.59,-223.47 -2050.64,439.75 -2276.09,1478.43 -225.45,1038.7 428.77,2065.54 1458.36,2289.02 1029.58,223.47 2050.62,-439.76 2276.07,-1478.46 225.45,-1038.68 -428.76,-2065.52 -1458.34,-2288.99zm-825.65 3803.94c-1049.55,-227.81 -1716.44,-1274.54 -1486.62,-2333.37 229.82,-1058.81 1270.65,-1734.88 2320.19,-1507.08 1049.54,227.81 1716.42,1274.54 1486.61,2333.35 -229.82,1058.83 -1270.64,1734.9 -2320.18,1507.1z"/>
   </g>
  </g>
 </g>
</svg>
