<?xml version="1.0" encoding="UTF-8"?>
<!DOCTYPE svg PUBLIC "-//W3C//DTD SVG 1.1//EN" "http://www.w3.org/Graphics/SVG/1.1/DTD/svg11.dtd">
<!-- Creator: CorelDRAW 2019 (64 Bit) -->
<svg xmlns="http://www.w3.org/2000/svg" xml:space="preserve" width="104.422mm" height="52.917mm" version="1.1" style="shape-rendering:geometricPrecision; text-rendering:geometricPrecision; image-rendering:optimizeQuality; fill-rule:evenodd; clip-rule:evenodd"
viewBox="0 0 10442.2 5291.7"
 xmlns:xlink="http://www.w3.org/1999/xlink">
 <defs>
  <style type="text/css">
   <![CDATA[
    .fil0 {fill:#B1DFDD;fill-rule:nonzero}
   ]]>
  </style>
 </defs>
 <g id="Camada_x0020_1">
  <metadata id="CorelCorpID_0Corel-Layer"/>
  <path class="fil0" d="M10439.38 533.41l0 -529.17 -10442.23 0 0 531.61c35.28,-1.45 32.12,-2.44 44.1,-2.44 155.87,0 286.63,126.37 286.63,282.22 0,155.86 -132.96,282.23 -288.83,282.23 -11.98,0 -6.62,-0.99 -41.9,-2.44l0 357.65c35.28,-1.45 32.12,-2.44 44.1,-2.44 155.87,0 286.63,126.37 286.63,282.23 0,155.85 -132.96,282.22 -288.83,282.22 -11.98,0 -6.62,-0.99 -41.9,-2.44l0 357.65c35.28,-1.45 32.12,-2.43 44.1,-2.43 155.87,0 286.63,126.36 286.63,282.22 0,155.85 -132.96,282.22 -288.83,282.22 -11.98,0 -6.62,-0.99 -41.9,-2.43l0 357.64c35.28,-1.44 32.12,-2.43 44.1,-2.43 155.87,0 286.63,126.36 286.63,282.22 0,155.86 -132.96,282.22 -288.83,282.22 -11.98,0 -6.62,-0.99 -41.9,-2.43l0 357.64c35.28,-1.44 32.12,-2.43 44.1,-2.43 155.87,0 286.63,126.36 286.63,282.22 0,155.86 -132.96,282.22 -288.83,282.22 -11.98,0 -6.62,-0.98 -41.9,-2.43l0 531.6 10442.23 0 0 -529.17c-141.12,0 -282.23,-126.36 -282.23,-282.22 0,-155.86 141.11,-282.22 282.23,-282.22l0 -352.78c-141.12,0 -282.23,-126.36 -282.23,-282.22 0,-155.86 141.11,-282.22 282.23,-282.22l0 -352.78c-141.12,0 -282.23,-126.37 -282.23,-282.22 0,-155.86 141.11,-282.22 282.23,-282.22l0 -352.78c-141.12,0 -282.23,-126.37 -282.23,-282.22 0,-155.86 141.11,-282.23 282.23,-282.23l0 -352.77c-141.12,0 -282.23,-126.37 -282.23,-282.23 0,-155.85 141.11,-282.22 282.23,-282.22z"/>
 </g>
</svg>
