<?xml version="1.0" encoding="UTF-8"?>
<!DOCTYPE svg PUBLIC "-//W3C//DTD SVG 1.1//EN" "http://www.w3.org/Graphics/SVG/1.1/DTD/svg11.dtd">
<!-- Creator: CorelDRAW 2020 (64 Bit) -->
<svg xmlns="http://www.w3.org/2000/svg" xml:space="preserve" width="69.053mm" height="62.556mm" version="1.1" style="shape-rendering:geometricPrecision; text-rendering:geometricPrecision; image-rendering:optimizeQuality; fill-rule:evenodd; clip-rule:evenodd"
viewBox="0 0 6905.3 6255.6"
 xmlns:xlink="http://www.w3.org/1999/xlink"
 xmlns:xodm="http://www.corel.com/coreldraw/odm/2003">
 <defs>
  <style type="text/css">
   <![CDATA[
    .fil5 {fill:#FCB53F;fill-rule:nonzero}
    .fil3 {fill:#FCCD3A;fill-rule:nonzero}
    .fil6 {fill:#F9E53A;fill-rule:nonzero}
    .fil1 {fill:#B2B4B4;fill-rule:nonzero}
    .fil0 {fill:#799BBA;fill-rule:nonzero}
    .fil4 {fill:#3F4076;fill-rule:nonzero}
    .fil2 {fill:#343358;fill-rule:nonzero}
   ]]>
  </style>
 </defs>
 <g id="Camada_x0020_1">
  <metadata id="CorelCorpID_0Corel-Layer"/>
  <g id="_2233089413136">
   <path class="fil0" d="M4206.45 910.04l-1351.69 -455.32c135.55,-69.56 286.97,-107.4 446.1,-108.49 112.55,-0.72 221.35,16.31 323.39,50.68 243.28,81.95 443.8,258.9 582.2,513.13z"/>
   <path class="fil1" d="M4352.92 1163.45l-1698.97 -572.31c61.65,-53.86 129.02,-99.59 200.81,-136.42l1351.69 455.32c6.53,12 12.95,24.21 19.21,36.55l127.26 216.86z"/>
   <path class="fil2" d="M5296.15 2770.57l-3314.71 -1116.58 428.4 -751.49c64.18,-121.92 147.12,-226.69 244.11,-311.36l1698.97 572.31 943.23 1607.12z"/>
   <path class="fil3" d="M680.8 6207.98c-405.36,-136.55 -679.63,-515.83 -682.5,-943.81 -1.29,-189.24 50.71,-374.12 150.44,-534.8l2376.09 -4168.24c182.12,-345.83 515.05,-553.75 891.01,-556.23 112.56,-0.77 221.37,16.27 323.4,50.64 254.79,85.82 462.67,275.87 601.4,549.72l2350 4004.09c114.72,185.24 211.15,360.89 212.86,608.56 1.8,267.85 -100.83,520.37 -288.96,711.06 -166.66,168.88 -382.72,271.32 -616.09,293.75l-1.34 3.98 -5036.93 33.78 -0.63 -1.15c-95.65,-3.88 -188.98,-21.11 -278.75,-51.35z"/>
   <path class="fil4" d="M6579.1 4674.82l-2352.09 -4007.64c-165.04,-328.23 -446.67,-535.37 -810.3,-532.93 -342.23,2.27 -626.28,198.66 -778.42,489l-2378.4 4172.33c-84.66,135.61 -133.42,296.04 -132.25,467.75 3.24,482.34 396.89,870.72 879.21,867.54 9.48,-0.16 18.84,-0.54 28.24,-0.94l0.43 0.73 4868.46 -32.61 0.02 -0.07 2.64 0.03c482.32,-3.17 870.74,-396.84 867.49,-879.19 -1.41,-206.32 -78.51,-355.82 -195.03,-544z"/>
   <path class="fil5" d="M1005.02 5858.17c-331.23,2.3 -602.54,-265.43 -604.79,-596.68 -0.72,-113.89 30.68,-225.11 90.88,-321.5l2301.69 -4042.99 90.23 -153.57c119.63,-209.07 306.36,-335.05 535.44,-336.58 243.62,-1.7 423.34,120.53 557.49,366.66l2391.46 4073.08c56.13,99.02 133.15,236.27 134.05,374.05 2.27,329.99 -263.4,600.5 -592.89,604.72 0,0 -4899.37,32.85 -4903.56,32.81z"/>
   <path class="fil3" d="M6041.97 4914.42l0.18 -0.24 -2623.69 -4505.21 -2562.79 4539.5c-41.85,65.87 -66.19,143.88 -65.6,227.77 1.56,232.06 190.93,418.92 422.99,417.39 6.08,-0.03 12.02,-0.75 18.06,-1.1l0.47 0.83 4427.66 -29.59 0.94 -1.58c10.85,0.72 21.65,1.48 32.67,1.47 232.11,-1.58 418.85,-191.03 417.31,-423.06 -0.56,-83.54 -25.68,-161.01 -68.2,-226.18z"/>
   <path class="fil6" d="M1159.07 5855.9c-258.57,-10.72 -465.78,-222.19 -467.54,-483.73 -0.79,-121.63 43.16,-232.87 116.18,-318.8 11.22,-37.42 27.46,-72.67 47.96,-104.9l2562.17 -4538.22 0.2 -3.35c-228.93,1.64 -415.48,127.54 -535.01,336.53l-90.23 153.57 -2301.69 4042.99c-60.2,96.39 -91.6,207.61 -90.88,321.5 2.25,331.25 273.56,598.98 604.79,596.68 0.49,0.06 55.75,-0.31 153.92,-0.98l0.13 -1.29z"/>
   <path class="fil4" d="M3923.89 1740.1c-3.12,-212.42 -216.88,-164.4 -481.55,-162.77 -265.38,1.66 -481.21,-42.56 -479.87,171.15 0.02,14.64 1.34,28.86 3.47,43.31l192.87 1968.04c1.05,165.87 136.24,299.52 301.83,298.45 165.91,-0.95 299.44,-136.25 298.4,-302.22l168.81 -1974.68c-0.03,-14.6 -1.59,-28.31 -3.96,-41.28zm-455.52 3557.49c-259.68,1.72 -471.29,-207.63 -473.08,-467.29 -1.54,-259.57 207.61,-471.35 467.22,-472.98 259.92,-1.57 471.5,207.44 473.11,467.18 1.65,259.57 -207.3,471.54 -467.25,473.09z"/>
  </g>
 </g>
</svg>
