<?xml version="1.0" encoding="UTF-8"?>
<!DOCTYPE svg PUBLIC "-//W3C//DTD SVG 1.1//EN" "http://www.w3.org/Graphics/SVG/1.1/DTD/svg11.dtd">
<!-- Creator: CorelDRAW 2019 (64 Bit) -->
<svg xmlns="http://www.w3.org/2000/svg" xml:space="preserve" width="59.083mm" height="59.083mm" version="1.1" style="shape-rendering:geometricPrecision; text-rendering:geometricPrecision; image-rendering:optimizeQuality; fill-rule:evenodd; clip-rule:evenodd"
viewBox="0 0 5908.3 5908.3"
 xmlns:xlink="http://www.w3.org/1999/xlink">
 <defs>
  <style type="text/css">
   <![CDATA[
    .fil2 {fill:#83A51A;fill-rule:nonzero}
    .fil0 {fill:#9AC21F;fill-rule:nonzero}
    .fil1 {fill:#D9D9D9;fill-rule:nonzero}
    .fil3 {fill:white;fill-rule:nonzero}
   ]]>
  </style>
 </defs>
 <g id="Camada_x0020_1">
  <metadata id="CorelCorpID_0Corel-Layer"/>
  <g id="_2156587913904">
   <path class="fil0" d="M-2.83 2958.36c0,1631.53 1322.61,2954.16 2954.14,2954.16 1631.53,0 2954.16,-1322.63 2954.16,-2954.16 0,-1631.53 -1322.63,-2954.13 -2954.16,-2954.13 -1631.53,0 -2954.14,1322.6 -2954.14,2954.13z"/>
   <path class="fil1" d="M5904.7 3025.85l0 -0.15 0 0.15zm0.1 -4.17c0,-0.07 0,-0.17 0,-0.24 0,0.17 0,0.07 0,0.24zm0.07 -4.27l0 -0.14 0 0.14zm0.18 -8.29c0,-0.1 0,-0.17 0,-0.28 0,0.11 0,0.18 0,0.28zm0.03 -4.16c0,-0.1 0.04,-0.32 0.04,-0.42 0,0.17 -0.04,0.24 -0.04,0.42zm0.07 -4.23c0,-0.21 0,-0.28 0,-0.46 0,0.18 0,0.28 0,0.46zm0.08 -4.41l0 -0.04 0 0.04zm0.03 -3.99c0,-0.1 0,-0.21 0,-0.32 0,0.07 0,0.25 0,0.32zm0.04 -4.09c0,-0.21 0.03,-0.39 0.03,-0.6 0,0.18 -0.03,0.42 -0.03,0.6zm0.07 -4.27c0,-0.21 0,-0.46 0,-0.67 0,0.18 0,0.49 0,0.67zm0.03 -4.37c0,-0.11 0,-0.32 0,-0.43 0,0.18 0,0.25 0,0.43zm0 -4.13c0,-0.11 0,-0.21 0,-0.32 0,0.11 0,0.25 0,0.32zm0.04 -4.06c0,-0.21 0,-0.42 0,-0.63 0,0.17 0,0.46 0,0.63zm0 -4.27c0,-0.21 0,-0.49 0,-0.7 0,0.17 0,0.53 0,0.7zm0.03 -4.34c0,-0.21 0,-0.42 0,-0.6 0,0.25 0,0.36 0,0.6zm0 -8.29c0,-0.1 0,-0.1 0,-0.21 0,0.07 0,0.14 0,0.21z"/>
   <path class="fil2" d="M3506.58 5859.63l-1221.7 -1221.7c582.69,-1250.52 1332.05,-2461.36 2434.62,-3321.5l1143.18 1143.14c27.38,160.93 42.55,326.07 42.79,494.73 0,0.11 0,0.11 0,0.21 0,1.27 0,2.58 0,3.85l0 0c0,1.23 0,2.61 0,3.84 0,0.18 0,0.39 0,0.6 -0.03,1.24 -0.03,2.4 -0.03,3.64 0,0.21 0,0.49 0,0.7 0,1.24 0,2.4 0,3.64 0,0.21 0,0.42 0,0.63 0,1.31 0,2.44 -0.04,3.74 0,0.11 0,0.21 0,0.32 0,1.23 0,2.47 0,3.7 0,0.11 0,0.32 0,0.43 -0.03,1.23 -0.03,2.5 -0.03,3.7 0,0.21 0,0.46 0,0.67 -0.04,1.24 -0.04,2.47 -0.04,3.67 0,0.21 -0.03,0.39 -0.03,0.6 0,1.3 0,2.47 -0.04,3.77 0,0.11 0,0.22 0,0.32 0,1.34 -0.03,2.65 -0.03,3.95l0 0.04c-0.04,1.34 -0.04,2.61 -0.08,3.95 0,0.18 0,0.25 0,0.46 0,1.2 -0.03,2.61 -0.03,3.81 0,0.1 -0.04,0.32 -0.04,0.42 0,1.31 -0.03,2.58 -0.03,3.88 0,0.11 0,0.18 0,0.28 -0.07,2.72 -0.11,5.44 -0.18,8.15l0 0.14c-0.03,1.31 -0.03,2.69 -0.07,4.03 0,0.07 0,0.17 0,0.24 -0.03,1.34 -0.07,2.72 -0.1,4.02l0 0.15c-31.61,1411.49 -1053.47,2577.95 -2398.12,2833.78z"/>
   <path class="fil3" d="M1119.62 3270.81c30.97,50.38 218.59,258.52 463.3,547.66 292.45,345.54 622.21,734.87 660.81,778.97 70.89,81.03 123.06,25.11 229.07,-186.94 146.82,-293.62 449.44,-937.16 874.78,-1524.53 425.32,-587.38 1063.35,-1235.5 1215.26,-1357.03 151.9,-121.53 222.77,-202.53 121.49,-243.03 -101.25,-40.53 -892.1,518.8 -1353.56,1018.72 -495.52,536.78 -1032.31,1413.08 -1165.35,1433.72 -106.58,16.55 -622.28,-370.2 -768.51,-461.08 -169.74,-105.52 -357.86,-137.65 -277.29,-6.46z"/>
  </g>
 </g>
</svg>
